<?xml version="1.0" encoding="UTF-8"?>
<svg viewBox="0 0 1024 1024" version="1.1" xmlns="http://www.w3.org/2000/svg">
  <!-- 跨帧传播填色：色点向两侧帧广播（iconfont） -->
  <path fill="#ffffff" d="M813.531429 258.230857a34.194286 34.194286 0 0 0-55.478858 39.862857 315.245714 315.245714 0 0 1 59.830858 185.088c0 66.633143-20.662857 130.56-59.830858 185.051429a34.157714 34.157714 0 1 0 55.442286 39.862857 383.122286 383.122286 0 0 0 72.777143-224.914286 382.902857 382.902857 0 0 0-72.740571-224.914285m-298.861715-14.116572a238.445714 238.445714 0 1 0 0 476.964572 238.445714 238.445714 0 0 0 0-476.964572m358.912-159.341714a34.157714 34.157714 0 1 0-51.419428 45.056 535.917714 535.917714 0 0 1 133.485714 353.28c0 129.718857-47.433143 255.158857-133.485714 353.316571a34.194286 34.194286 0 0 0 51.419428 45.056A604.16 604.16 0 0 0 1024 483.108571c0-146.249143-53.430857-287.707429-150.418286-398.336M254.683429 250.404571a34.121143 34.121143 0 0 0-47.689143 7.826286 383.488 383.488 0 0 0-72.630857 224.914286c0 81.005714 25.124571 158.793143 72.630857 224.914286a34.157714 34.157714 0 1 0 55.515428-39.862858 315.355429 315.355429 0 0 1-59.794285-185.051428c0-66.596571 20.662857-130.596571 59.794285-185.051429a34.157714 34.157714 0 0 0-7.826285-47.689143m-186.368 232.740572c0-129.682286 47.36-255.122286 133.376-353.28A34.157714 34.157714 0 1 0 150.308571 84.809143 604.269714 604.269714 0 0 0 0 483.145143c0 146.285714 53.394286 287.744 150.308571 398.372571a34.157714 34.157714 0 1 0 51.382858-45.019428 536.027429 536.027429 0 0 1-133.376-353.353143"/>
</svg>
